<svg width="40" height="40" viewBox="0 0 40 40" fill="none" xmlns="http://www.w3.org/2000/svg">
<circle cx="20" cy="20" r="20" fill="#00F4BF"/>
<path fill-rule="evenodd" clip-rule="evenodd" d="M13.3335 9.16666C11.8184 9.16666 10.6062 10.255 10.6062 11.5411C10.6062 12.2831 10.9223 12.9351 11.4395 13.3404C11.806 13.6276 12.2488 13.795 12.7273 13.8691V16.9299C12.6144 17.1884 12.5206 17.1712 12.358 17.2268C12.0772 17.1717 11.8182 17.1804 11.5151 17.1804C10.2525 17.1804 9.06307 17.7736 8.17246 18.6458C7.28185 19.5182 6.66675 20.6925 6.66675 21.9292C6.66675 24.6499 9.04772 26.6779 11.515 26.6779H12.4241C12.4559 26.6779 12.4875 26.6741 12.5188 26.6687C14.1328 29.5828 16.9753 30.8333 19.9999 30.8333C23.3216 30.8333 25.5679 29.419 27.6987 26.6502C27.7568 26.6683 27.8177 26.6778 27.8786 26.6781H28.4846C31.2118 26.6781 33.373 24.4147 33.3329 21.9295C33.2921 19.383 31.2622 17.1809 28.4846 17.1809C28.297 17.1809 28.0028 17.1901 27.6986 17.3014C27.6589 17.2415 27.6167 17.1842 27.5755 17.1252V13.8418C27.9571 13.7548 28.3205 13.5889 28.6267 13.3223C29.0925 12.9167 29.3937 12.2835 29.3937 11.5414C29.3937 10.8983 29.0913 10.3176 28.655 9.89054C28.219 9.46343 27.626 9.16703 26.9695 9.16703C26.3129 9.16703 25.7295 9.46327 25.2934 9.89054C24.8573 10.3176 24.5453 10.8985 24.5453 11.5414C24.5453 12.2835 24.8559 12.9167 25.3218 13.3223C25.6261 13.5872 25.9871 13.7541 26.3634 13.8418V15.7432C24.7436 14.245 22.5212 13.3224 19.9998 13.3224C17.7523 13.3224 15.5382 14.1963 13.9395 15.5948V13.8419C14.321 13.7549 14.6844 13.5891 14.9906 13.3224C15.4564 12.9168 15.7577 12.2836 15.7577 11.5415C15.7577 10.8984 15.4552 10.3178 15.019 9.89066C14.5829 9.46355 13.9899 9.16715 13.3335 9.16715L13.3335 9.16666ZM16.8751 18.3584C17.4946 18.3584 18.0777 18.7782 18.0777 19.6569C17.9758 21.1392 15.5817 21.0143 15.5494 19.6105C15.5738 18.7882 15.9377 18.3745 16.8751 18.3584L16.8751 18.3584ZM23.3806 18.3584C24.0001 18.3584 24.5832 18.7782 24.5832 19.6569C24.4812 21.1392 22.0871 21.0143 22.0548 19.6105C22.0793 18.7882 22.4431 18.3745 23.3806 18.3584L23.3806 18.3584ZM17.8788 23.7103H22.4243V25.1943H17.8788V23.7103Z" fill="#01080E"/>
</svg>
