<svg width="19" height="32" viewBox="0 0 19 32" fill="none" xmlns="http://www.w3.org/2000/svg">
<path d="M9.09289 18.9697C10.5441 18.9697 11.9361 18.3932 12.9622 17.3669C13.9885 16.3408 14.5649 14.9489 14.5649 13.4976V5.47204C14.5649 4.02079 13.9885 2.62911 12.9622 1.60272C11.9361 0.576585 10.5442 0 9.09289 0C7.64159 0 6.2497 0.576559 5.22357 1.60272C4.19733 2.62895 3.62085 4.02074 3.62085 5.47204V13.4976C3.62085 14.4581 3.87366 15.4018 4.35397 16.2336C4.83418 17.0654 5.525 17.7562 6.35676 18.2364C7.18863 18.7167 8.13228 18.9695 9.09276 18.9695L9.09289 18.9697Z" fill="#DBE4EF"/>
<path d="M14.5328 17.9968C13.852 18.7644 13.0135 19.3759 12.0747 19.7896C11.1358 20.2032 10.1186 20.4093 9.0928 20.3937C8.06696 20.4091 7.0499 20.2029 6.1112 19.7893C5.17235 19.3757 4.33382 18.7643 3.65286 17.9968C3.179 17.4304 2.43892 17.1598 1.7114 17.287C0.983803 17.414 0.379431 17.9197 0.125779 18.6133C-0.127866 19.3069 0.00775755 20.0832 0.481618 20.6496C2.15652 22.6182 4.47547 23.9291 7.0256 24.3488V29.9328C7.0256 30.6713 7.41955 31.3537 8.05914 31.723C8.69882 32.0923 9.48674 32.0923 10.1264 31.723C10.766 31.3537 11.16 30.6713 11.16 29.9328V24.3488C13.7134 23.9323 16.036 22.6225 17.7135 20.6528C18.1879 20.0846 18.3232 19.3065 18.0685 18.6115C17.8136 17.9165 17.2073 17.4102 16.478 17.2835C15.7486 17.1567 15.0072 17.4287 14.5327 17.9968L14.5328 17.9968Z" fill="#DBE4EF"/>
</svg>
