<svg width="185" height="48" viewBox="0 0 185 48" fill="none" xmlns="http://www.w3.org/2000/svg">
<path d="M62.21 29.47V19.13L64.74 16.6H72.264L74.75 19.086V21.44H71.758V20.186L70.724 19.152H66.324L65.202 20.274V28.326L66.324 29.448H70.724L71.758 28.414V27.16H74.75V29.514L72.264 32H64.74L62.21 29.47ZM76.846 16.6H79.838V23.046H86.35V16.6H89.342V32H86.35V25.598H79.838V32H76.846V16.6ZM96.5193 16.6H99.2473L104.879 32H101.843L100.589 28.59H95.1773L93.9233 32H90.8873L96.5193 16.6ZM99.9293 26.126L97.8833 20.274H97.8393L95.8593 26.126H99.9293ZM107.951 19.13H103.353V16.6H115.541V19.13H110.943V32H107.951V19.13ZM117.301 16.6H126.959L129.159 18.8V23.112L128.279 24.014L129.841 25.598V29.624L127.465 32H117.301V16.6ZM125.419 23.046L126.211 22.254V19.878L125.441 19.108H120.227V23.046H125.419ZM125.947 29.492L126.893 28.546V26.39L125.947 25.444H120.227V29.492H125.947ZM131.819 29.47V19.13L134.349 16.6H142.269L144.799 19.13V29.47L142.269 32H134.349L131.819 29.47ZM140.685 29.448L141.807 28.326V20.274L140.685 19.152H135.933L134.811 20.274V28.326L135.933 29.448H140.685ZM150.619 19.13H146.021V16.6H158.209V19.13H153.611V32H150.619V19.13Z" fill="#CED3E0"/>
<circle cx="24" cy="24" r="24" fill="#00F4BF"/>
<path fill-rule="evenodd" clip-rule="evenodd" d="M16.0001 11C14.182 11 12.7274 12.306 12.7274 13.8493C12.7274 14.7398 13.1067 15.5222 13.7273 16.0085C14.1671 16.3532 14.6985 16.554 15.2727 16.643V20.3159C15.1372 20.6261 15.0246 20.6055 14.8295 20.6721C14.4925 20.606 14.1818 20.6165 13.8181 20.6165C12.3029 20.6165 10.8756 21.3283 9.80686 22.375C8.73812 23.4218 8 24.8311 8 26.3151C8 29.5799 10.8572 32.0135 13.8179 32.0135H14.9088C14.9469 32.0135 14.9849 32.0089 15.0225 32.0024C16.9592 35.4994 20.3703 37 23.9998 37C27.9858 37 30.6813 35.3028 33.2383 31.9803C33.308 32.002 33.3812 32.0134 33.4543 32.0138H34.1815C37.454 32.0138 40.0475 29.2976 39.9993 26.3154C39.9505 23.2596 37.5145 20.617 34.1815 20.617C33.9563 20.617 33.6033 20.6281 33.2383 20.7617C33.1905 20.6898 33.14 20.6211 33.0905 20.5502V16.6101C33.5484 16.5057 33.9845 16.3067 34.3519 15.9867C34.9109 15.5 35.2724 14.7402 35.2724 13.8497C35.2724 13.078 34.9094 12.3812 34.386 11.8687C33.8627 11.3561 33.1511 11.0004 32.3633 11.0004C31.5754 11.0004 30.8753 11.3559 30.352 11.8687C29.8287 12.3812 29.4543 13.0782 29.4543 13.8497C29.4543 14.7402 29.827 15.5 30.386 15.9867C30.7512 16.3047 31.1845 16.505 31.6359 16.6101V18.8918C29.6922 17.094 27.0253 15.9869 23.9997 15.9869C21.3027 15.9869 18.6457 17.0356 16.7273 18.7138V16.6103C17.1851 16.5059 17.6212 16.3069 17.9887 15.9869C18.5476 15.5001 18.9091 14.7404 18.9091 13.8499C18.9091 13.0781 18.5461 12.3813 18.0227 11.8688C17.4994 11.3563 16.7878 11.0006 16.0001 11.0006L16.0001 11ZM20.2501 22.0301C20.9934 22.0301 21.6932 22.5338 21.6932 23.5883C21.5708 25.367 18.6979 25.2171 18.6592 23.5327C18.6885 22.5459 19.1251 22.0494 20.25 22.0301L20.2501 22.0301ZM28.0566 22.0301C28.8 22.0301 29.4998 22.5338 29.4998 23.5883C29.3774 25.367 26.5044 25.2171 26.4657 23.5327C26.495 22.5459 26.9317 22.0494 28.0566 22.0301L28.0566 22.0301ZM21.4544 28.4524H26.909V30.2331H21.4544V28.4524Z" fill="#01080E"/>
</svg>
